<svg width="44" height="24" viewBox="0 0 44 24" fill="none" xmlns="http://www.w3.org/2000/svg">
<rect width="44" height="24" rx="12" fill="#5900E6"/>
<path d="M30.6485 7.74215C30.4698 7.59292 30.2526 7.49694 30.022 7.46517C29.7913 7.4334 29.5563 7.46711 29.3438 7.56246L25.3907 9.32028L23.0938 5.17965C22.9841 4.98634 22.825 4.82557 22.6329 4.71373C22.4407 4.60189 22.2224 4.54297 22.0001 4.54297C21.7778 4.54297 21.5594 4.60189 21.3673 4.71373C21.1752 4.82557 21.0161 4.98634 20.9063 5.17965L18.6095 9.32028L14.6563 7.56246C14.4434 7.46725 14.2082 7.43349 13.9771 7.465C13.746 7.49651 13.5284 7.59203 13.3488 7.74077C13.1691 7.8895 13.0347 8.08552 12.9607 8.30666C12.8866 8.5278 12.8759 8.76524 12.9298 8.99215L14.9141 17.4531C14.9521 17.6169 15.0229 17.7713 15.1223 17.9069C15.2216 18.0426 15.3475 18.1566 15.4923 18.2422C15.6882 18.3595 15.9123 18.4215 16.1407 18.4218C16.2517 18.4216 16.3622 18.4058 16.4688 18.375C20.0859 17.3749 23.9065 17.3749 27.5235 18.375C27.8538 18.4618 28.205 18.414 28.5001 18.2422C28.6457 18.1577 28.7723 18.044 28.8718 17.9082C28.9713 17.7724 29.0416 17.6174 29.0782 17.4531L31.0704 8.99215C31.1236 8.76518 31.1123 8.52785 31.0378 8.30696C30.9632 8.08608 30.8284 7.89044 30.6485 7.74215ZM27.8595 17.1718C24.0228 16.1093 19.9695 16.1093 16.1329 17.1718L14.1485 8.7109L18.1016 10.4609C18.3853 10.5899 18.7072 10.6068 19.0028 10.5082C19.2984 10.4097 19.5458 10.203 19.6954 9.92965L22.0001 5.78903L24.3048 9.92965C24.4543 10.203 24.7017 10.4097 24.9973 10.5082C25.2929 10.6068 25.6149 10.5899 25.8985 10.4609L29.8516 8.7109L27.8595 17.1718Z" fill="white"/>
<path fill-rule="evenodd" clip-rule="evenodd" d="M21.2623 4.53376C21.4862 4.4034 21.7407 4.33472 21.9999 4.33472C22.259 4.33472 22.5135 4.4034 22.7375 4.53376C22.9614 4.66413 23.1468 4.85152 23.2748 5.07685L23.2758 5.07867L25.4802 9.05249L29.2583 7.37248C29.5063 7.26127 29.7809 7.22179 30.0502 7.25887C30.3194 7.29594 30.5728 7.4079 30.7814 7.58197C30.991 7.75491 31.1481 7.98296 31.235 8.24042C31.322 8.49812 31.3351 8.77501 31.273 9.03981L29.2813 17.4985L29.2811 17.4997C29.2381 17.6917 29.1559 17.8727 29.0396 18.0314C28.9232 18.1903 28.775 18.3235 28.6046 18.4224C28.2618 18.6219 27.8539 18.6774 27.4703 18.5765L27.4678 18.5758C23.8875 17.586 20.1057 17.5859 16.5253 18.5755C16.4003 18.6116 16.2709 18.63 16.1409 18.6303C15.8752 18.6299 15.6138 18.5577 15.3857 18.4214C15.2168 18.3215 15.07 18.1884 14.954 18.0301C14.838 17.8718 14.7554 17.6916 14.711 17.5004L12.7269 9.04033C12.6641 8.7757 12.6766 8.4985 12.7629 8.2406C12.8493 7.9826 13.0061 7.75391 13.2157 7.58039C13.4252 7.40686 13.6792 7.29542 13.9487 7.25866C14.2183 7.22191 14.4927 7.26126 14.741 7.37228L18.5196 9.05249L20.7239 5.07867L20.725 5.07685C20.8529 4.85152 21.0383 4.66413 21.2623 4.53376ZM21.9999 4.75138C21.8144 4.75138 21.6322 4.80055 21.4719 4.89386C21.3119 4.98701 21.1794 5.12085 21.0878 5.28176L21.0873 5.28261L18.6989 9.58822L14.5715 7.75291C14.3941 7.67356 14.1976 7.64525 14.005 7.67151C13.8125 7.69776 13.6311 7.77737 13.4814 7.90131C13.3318 8.02526 13.2197 8.18861 13.158 8.37289C13.0963 8.55717 13.0874 8.75504 13.1323 8.94413L15.1168 17.4056C15.1483 17.5419 15.2074 17.671 15.2901 17.7839C15.3728 17.8968 15.4776 17.9917 15.5981 18.0629L15.5991 18.0635C15.7627 18.1614 15.9497 18.2133 16.1404 18.2136C16.2319 18.2134 16.3228 18.2004 16.4107 18.1749L16.4131 18.1742C20.066 17.1643 23.9245 17.1642 27.5775 18.1739L27.5788 18.1742L27.5233 18.375L27.5763 18.1736L27.5775 18.1739C27.854 18.2462 28.148 18.2061 28.395 18.0622C28.5158 17.9922 28.621 17.8977 28.7035 17.7851C28.786 17.6725 28.8443 17.5441 28.8747 17.4078L28.8752 17.4054L30.8674 8.94465C30.9117 8.75557 30.9023 8.55768 30.8402 8.37366C30.7781 8.18959 30.6657 8.02656 30.5158 7.90299L30.5148 7.90216C30.366 7.77796 30.1853 7.69808 29.9933 7.67164C29.8013 7.64519 29.6058 7.67325 29.4289 7.75261L25.3009 9.58822L22.9125 5.28261L22.912 5.28171C22.8204 5.12082 22.6879 4.987 22.5279 4.89386C22.3675 4.80055 22.1854 4.75138 21.9999 4.75138ZM21.9999 5.36074L24.4873 9.82974C24.6116 10.057 24.8173 10.2288 25.063 10.3107C25.3087 10.3926 25.5763 10.3785 25.8121 10.2713L25.814 10.2705L30.1503 8.35086L28.0124 17.4305L27.8036 17.3727C24.0034 16.3203 19.9886 16.3203 16.1883 17.3727L15.9794 17.4306L13.8499 8.35105L18.1877 10.2713C18.4234 10.3785 18.691 10.3926 18.9368 10.3107C19.1825 10.2288 19.3881 10.057 19.5124 9.82974L19.5132 9.82841L21.9999 5.36074ZM21.9999 6.21747L19.878 10.0297C19.7031 10.3489 19.4138 10.5909 19.0685 10.7059C18.7234 10.821 18.3475 10.8014 18.0162 10.6511L14.4467 9.07092L16.2863 16.9143C20.0275 15.9175 23.9646 15.9175 27.7059 16.9144L29.5526 9.0711L25.9845 10.6506L25.9836 10.6511C25.6523 10.8014 25.2764 10.821 24.9312 10.7059C24.586 10.5909 24.297 10.3496 24.1222 10.0304L21.9999 6.21747Z" fill="white"/>
</svg>
