<svg width="165" height="44" viewBox="0 0 165 44" fill="none" xmlns="http://www.w3.org/2000/svg">
<path d="M33.974 7.3526C37.7609 6.12523 41.9806 6.19084 45.6824 7.67681C49.1409 9.07014 51.9926 11.8838 53.4262 15.3228C54.883 18.6807 55.1535 22.4786 54.4889 26.0565C50.8488 26.6277 47.1972 27.1295 43.5649 27.7624C46.4591 24.9449 46.2968 19.6687 43.2712 17.0017C40.9257 14.8905 36.9031 15.0256 34.743 17.3452C31.6014 20.5372 32.2004 26.7782 36.335 28.8547C32.8302 29.3565 29.3331 29.9238 25.8322 30.4526C23.4557 25.7091 23.3244 19.9119 25.4728 15.0603C27.0687 11.4554 30.2374 8.60312 33.974 7.3526Z" fill="#242424"/>
<path d="M104.074 10.5059C110.055 4.85149 120.744 5.15254 126.242 11.3434C127.158 12.3354 127.885 13.4855 128.511 14.6782C125.211 15.1992 121.907 15.6933 118.607 16.2066C117.293 16.4845 116.165 15.3845 114.832 15.5311C112.961 15.3497 111.226 16.2297 109.878 17.4533C106.489 18.1982 102.992 18.534 99.5642 19.1322C100.163 15.894 101.62 12.7483 104.074 10.5059Z" fill="#242424"/>
<path d="M3.86426 7.229C10.8198 7.229 17.7753 7.229 24.7308 7.229C24.7308 9.71076 24.7308 12.1887 24.7308 14.6666C20.3527 14.6666 15.9707 14.6666 11.5926 14.6666C11.5926 15.9518 11.5926 17.2409 11.5926 18.5262C15.1322 18.5262 18.6679 18.5262 22.2075 18.5262C22.2075 21.008 22.2075 23.4859 22.2075 25.9638C18.6679 25.9599 15.1322 25.9638 11.5926 25.9599C11.5887 28.1869 11.5965 30.4139 11.5887 32.641C9.01519 33.0308 6.44166 33.4322 3.86426 33.8259C3.86426 24.9603 3.86426 16.0946 3.86426 7.229Z" fill="#242424"/>
<path d="M55.9262 7.33337C60.2232 7.36425 64.5201 7.27161 68.8132 7.38354C71.9818 7.42986 75.39 8.44495 77.4033 11.0309C79.8222 14.165 80.1121 18.5534 79.061 22.2625C71.3559 23.4822 63.6352 24.6362 55.9224 25.8327C55.934 19.665 55.9262 13.5011 55.9262 7.33337ZM63.9367 20.8383C65.4321 20.7958 67.0125 21.0506 68.423 20.4446C70.4323 19.5762 70.44 16.2607 68.5157 15.2997C67.0782 14.6513 65.4669 14.8829 63.9444 14.852C63.9328 16.8474 63.9405 18.8429 63.9367 20.8383Z" fill="#242424"/>
<path d="M130.995 7.33325C133.959 7.33325 136.919 7.33325 139.883 7.33325C139.883 9.20132 139.883 11.0694 139.879 12.9413C136.919 13.3929 133.955 13.8483 130.995 14.3038C130.995 11.9803 130.995 9.65676 130.995 7.33325Z" fill="#242424"/>
<path d="M148.975 7.33325C151.931 7.33325 154.884 7.33325 157.84 7.33325C157.84 8.28273 157.836 9.22834 157.836 10.1778C154.88 10.641 151.924 11.0887 148.971 11.5441C148.979 10.1392 148.975 8.73817 148.975 7.33325Z" fill="#242424"/>
<path d="M76.074 7.53015C79.4435 7.48769 82.8092 7.6305 86.1788 7.6112C87.6124 10.7645 89.0499 13.9179 90.4526 17.0828C91.7393 13.9256 93.0956 10.7993 94.3515 7.6305C97.6206 7.59576 100.886 7.6305 104.155 7.6112C101.794 11.5326 99.6493 15.6007 97.2033 19.4526C93.1613 20.1551 89.0962 20.7302 85.0389 21.3438C82.0325 16.747 79.1189 12.0961 76.074 7.53015Z" fill="#242424"/>
<path d="M148.979 18.6227C151.935 18.2599 154.888 17.9087 157.84 17.5459C157.712 21.4441 158.13 25.381 157.546 29.2484C156.943 32.8185 154.876 36.2807 151.595 37.9789C148.071 39.7929 143.852 40.0747 140.038 39.0982C136.66 38.2336 133.677 35.8522 132.298 32.6256C130.512 28.9396 131.084 24.7557 130.995 20.7996C133.959 20.4406 136.919 20.0778 139.883 19.7227C139.937 22.1659 139.763 24.6129 139.995 27.0484C140.13 28.6424 140.884 30.2866 142.352 31.0624C144.076 31.788 146.348 31.5642 147.6 30.0743C148.651 28.8971 148.86 27.2606 148.968 25.7477C148.999 23.374 148.96 20.9964 148.979 18.6227Z" fill="#242424"/>
<path d="M120.96 22.0155C124.005 21.6372 127.054 21.2976 130.095 20.8923C130.516 25.2537 129.287 29.8853 126.378 33.2201C121.215 39.1987 111.338 39.8239 105.132 35.1422C101.825 32.6566 99.9002 28.6773 99.4365 24.6208C102.339 24.2695 105.241 23.9337 108.139 23.5594C108.452 25.4622 109.352 27.3766 111.002 28.4688C113.363 30.1092 116.922 29.8892 118.916 27.7664C120.477 26.3074 121.087 24.0997 120.96 22.0155Z" fill="#242424"/>
<path d="M86.7663 26.1647C89.3978 25.8366 92.0332 25.524 94.6685 25.2036C94.7767 29.538 94.8077 33.8763 94.9699 38.2068C92.2341 38.2145 89.4983 38.2106 86.7625 38.2106C86.7663 34.1966 86.7624 30.1787 86.7663 26.1647Z" fill="#242424"/>
<path d="M55.9299 29.9007C62.1164 29.1404 68.3068 28.4032 74.4934 27.6428C76.6921 31.1976 78.8521 34.7716 81.0509 38.3225C77.7547 38.2955 74.4625 38.3379 71.1663 38.2993C69.4081 35.3042 67.6306 32.3246 65.8647 29.3333C65.2889 29.3333 64.717 29.3333 64.1451 29.3333C64.1451 32.3246 64.1451 35.3197 64.1451 38.3148C61.4054 38.3109 58.6657 38.3148 55.9299 38.3109C55.926 35.5088 55.926 32.7028 55.9299 29.9007Z" fill="#242424"/>
<path d="M27.76 33.301C36.2032 32.2898 44.6464 31.2747 53.0858 30.2288C51.5092 33.1853 48.982 35.667 45.8675 36.9561C39.851 39.4649 32.1883 38.2684 27.76 33.301Z" fill="#242424"/>
<path d="M3.86426 36.2074C6.44166 35.8909 9.0152 35.5822 11.5926 35.2695C11.5926 36.2151 11.5926 37.1608 11.5926 38.1102C9.0152 38.1064 6.44166 38.1064 3.86426 38.1102C3.86426 37.4734 3.86426 36.8404 3.86426 36.2074Z" fill="#242424"/>
</svg>
