<svg width="24" height="24" viewBox="0 0 24 24" fill="none" xmlns="http://www.w3.org/2000/svg">
<path d="M12 19V17H15L18.55 12L15 7H5V10H3V7C3 6.45 3.19567 5.97933 3.587 5.588C3.979 5.196 4.45 5 5 5H15C15.3333 5 15.646 5.075 15.938 5.225C16.2293 5.375 16.4667 5.58333 16.65 5.85L20.175 10.85C20.4083 11.2 20.525 11.5833 20.525 12C20.525 12.4167 20.4083 12.8 20.175 13.15L16.65 18.15C16.4667 18.4167 16.2293 18.625 15.938 18.775C15.646 18.925 15.3333 19 15 19H12ZM6 20C5.71667 20 5.479 19.904 5.287 19.712C5.09567 19.5207 5 19.2833 5 19V17H3C2.71667 17 2.47933 16.904 2.288 16.712C2.096 16.5207 2 16.2833 2 16C2 15.7167 2.096 15.479 2.288 15.287C2.47933 15.0957 2.71667 15 3 15H5V13C5 12.7167 5.09567 12.479 5.287 12.287C5.479 12.0957 5.71667 12 6 12C6.28333 12 6.521 12.0957 6.713 12.287C6.90433 12.479 7 12.7167 7 13V15H9C9.28333 15 9.521 15.0957 9.713 15.287C9.90433 15.479 10 15.7167 10 16C10 16.2833 9.90433 16.5207 9.713 16.712C9.521 16.904 9.28333 17 9 17H7V19C7 19.2833 6.90433 19.5207 6.713 19.712C6.521 19.904 6.28333 20 6 20Z" fill="#5900E6"/>
</svg>
