<svg width="14" height="14" viewBox="0 0 14 14" fill="none" xmlns="http://www.w3.org/2000/svg">
<path d="M13.9963 1.19858C13.8025 3.658 12.9626 9.63533 12.5362 12.3905C12.3553 13.5579 11.9935 13.9471 11.6576 13.9938C10.9082 14.0716 10.3397 13.4023 9.61609 12.8263C8.47905 11.9235 7.83301 11.3631 6.73473 10.4915C5.45557 9.47967 6.2825 8.91929 7.01899 8.01647C7.21281 7.78298 10.5206 4.15611 10.5852 3.82923C10.5941 3.77972 10.5929 3.72831 10.5817 3.67949C10.5704 3.63066 10.5494 3.58588 10.5206 3.54904C10.443 3.47121 10.3397 3.50234 10.2492 3.51791C10.1329 3.54904 8.324 4.99667 4.7966 7.86081C4.27977 8.28109 3.81461 8.49901 3.40114 8.48345C2.93599 8.46788 2.05737 8.17213 1.39841 7.90751C0.584393 7.59619 -0.0487304 7.42496 0.00295314 6.88015C0.0287949 6.59997 0.351817 6.31978 0.959099 6.02402C4.732 4.04715 7.23865 2.73961 8.49197 2.11697C12.084 0.31132 12.8205 0 13.3115 0C13.4148 0 13.6603 0.0311317 13.8154 0.186791C13.9446 0.311319 13.9833 0.482545 13.9963 0.607073C13.9833 0.700469 14.0092 0.980656 13.9963 1.19858Z" fill="#828282"/>
</svg>
